Coordinates
version=1
nRows=49
nColumns=12
inDegrees=yes

Units are S.I. units (second, meters, Newtons, ...)
Angles are in degrees

endheader
time	SC_y	SC_z	SC_x	AC_y	AC_z	AC_x	GH_y	GH_z	GH_yy	EL_x	PS_y
       0.0               -49.8         -1.772          45.18          40.42         -5.545         -3.586         -124.7         -8.416          145.4          19.98          141.1
   0.04892               -49.8         -1.769          45.18          40.42         -5.545         -3.583         -124.7         -8.409          145.4          19.98          141.1
   0.09783               -49.8         -1.766          45.18          40.42         -5.545          -3.58         -124.7           -8.4          145.4          19.98          141.1
    0.1468               -49.8         -1.762          45.18          40.42         -5.544         -3.577         -124.7         -8.392          145.4          19.97          141.1
    0.1957               -49.8         -1.759          45.18          40.42         -5.543         -3.573         -124.7         -8.383          145.4          19.97          141.1
    0.2446               -49.8         -1.755          45.18          40.42         -5.543         -3.569         -124.7         -8.373          145.4          19.97          141.0
    0.2935               -49.8         -1.751          45.19          40.42         -5.542         -3.565         -124.8         -8.362          145.4          19.97          141.0
    0.3424               -49.8         -1.747          45.19          40.42         -5.542         -3.561         -124.8         -8.351          145.4          19.96          141.0
    0.3913               -49.8         -1.742          45.19          40.42         -5.541         -3.556         -124.8         -8.339          145.3          19.96          141.0
    0.4403               -49.8         -1.737          45.19          40.42          -5.54         -3.551         -124.8         -8.326          145.3          19.96          141.0
    0.4892               -49.8         -1.732          45.19          40.43         -5.539         -3.546         -124.8         -8.312          145.3          19.95          141.0
    0.5381               -49.8         -1.726          45.19          40.43         -5.538          -3.54         -124.8         -8.298          145.3          19.95          141.0
     0.587               -49.8          -1.72          45.19          40.43         -5.537         -3.533         -124.8         -8.282          145.3          19.95          140.9
    0.6359               -49.8         -1.714           45.2          40.43         -5.536         -3.527         -124.8         -8.264          145.2          19.94          140.9
    0.6848              -49.79         -1.706           45.2          40.43         -5.535         -3.519         -124.8         -8.245          145.2          19.94          140.9
    0.7338              -49.79         -1.699           45.2          40.43         -5.534         -3.511         -124.8         -8.225          145.2          19.93          140.9
    0.7827              -49.79          -1.69           45.2          40.43         -5.533         -3.503         -124.9         -8.203          145.1          19.93          140.8
    0.8316              -49.79         -1.681          45.21          40.43         -5.531         -3.493         -124.9         -8.179          145.1          19.92          140.8
    0.8805              -49.79         -1.671          45.21          40.43         -5.529         -3.483         -124.9         -8.153          145.1          19.92          140.8
    0.9294              -49.79          -1.66          45.21          40.43         -5.528         -3.471         -124.9         -8.124          145.0          19.91          140.7
    0.9783              -49.79         -1.648          45.21          40.43         -5.526         -3.459         -124.9         -8.092          145.0           19.9          140.7
     1.027              -49.79         -1.635          45.22          40.43         -5.524         -3.445         -125.0         -8.058          144.9          19.89          140.7
     1.076              -49.78          -1.62          45.22          40.43         -5.521          -3.43         -125.0         -8.019          144.9          19.88          140.6
     1.125              -49.78         -1.604          45.23          40.43         -5.519         -3.413         -125.0         -7.977          144.8          19.87          140.6
     1.174              -49.78         -1.586          45.23          40.43         -5.516         -3.395         -125.0         -7.929          144.7          19.86          140.5
     1.223              -49.78         -1.565          45.24          40.43         -5.513         -3.374         -125.1         -7.877          144.7          19.85          140.4
     1.272              -49.78         -1.543          45.24          40.44         -5.509         -3.351         -125.1         -7.818          144.6          19.84          140.4
     1.321              -49.77         -1.517          45.25          40.44         -5.505         -3.324         -125.2         -7.751          144.5          19.82          140.3
      1.37              -49.77         -1.489          45.26          40.44         -5.501         -3.295         -125.2         -7.676          144.4           19.8          140.2
     1.419              -49.76         -1.456          45.27          40.44         -5.495         -3.261         -125.3         -7.591          144.3          19.78          140.1
     1.468              -49.76         -1.419          45.28          40.44          -5.49         -3.223         -125.3         -7.493          144.1          19.76          140.0
     1.516              -49.75         -1.376          45.29          40.44         -5.483         -3.179         -125.4         -7.381          144.0          19.73          139.8
     1.565              -49.75         -1.327          45.31          40.45         -5.475         -3.128         -125.5         -7.252          143.8           19.7          139.7
     1.614              -49.74          -1.27          45.32          40.45         -5.466         -3.069         -125.6         -7.103          143.6          19.66          139.5
     1.663              -49.73         -1.203          45.34          40.45         -5.455           -3.0         -125.7         -6.927          143.3          19.62          139.3
     1.712              -49.72         -1.124          45.36          40.46         -5.443         -2.918         -125.8          -6.72          143.0          19.57          139.0
     1.761              -49.71          -1.03          45.39          40.46         -5.428         -2.822         -126.0         -6.475          142.7          19.51          138.7
      1.81               -49.7        -0.9171          45.42          40.47          -5.41         -2.706         -126.2          -6.18          142.2          19.44          138.4
     1.859              -49.68        -0.7809          45.46          40.48         -5.388         -2.565         -126.4         -5.824          141.7          19.36          137.9
     1.908              -49.66        -0.6145          45.51          40.49         -5.362         -2.394         -126.7         -5.389          141.1          19.25          137.4
     1.957              -49.64        -0.4092          45.57           40.5         -5.329         -2.182         -127.1         -4.851          140.3          19.12          136.8
     2.006              -49.61        -0.1532          45.64          40.51         -5.289         -1.918         -127.5         -4.181          139.4          18.96          135.9
     2.055              -49.57         0.1693          45.73          40.53         -5.237         -1.586         -128.0         -3.337          138.2          18.76          134.9
     2.103              -49.52         0.5793          45.85          40.55         -5.172         -1.163         -128.8         -2.265          136.6           18.5          133.6
     2.152              -49.46          1.104           46.0          40.58         -5.089         -0.622         -129.7        -0.8914          134.7          18.17          131.9
     2.201              -49.37          1.778          46.19          40.62         -4.982        0.07223         -130.8         0.8707          132.1          17.75          129.8
      2.25              -49.27          2.638          46.44          40.67         -4.846          0.959         -132.3          3.122          128.9          17.21          127.0
     2.299              -49.14          3.719          46.75          40.73         -4.674          2.074         -134.1          5.952          124.9          16.53          123.6
     2.348              -48.98          5.038          47.12           40.8         -4.465          3.433         -136.4          9.401          119.9          15.71          119.4
